HIERARCHY
ROOT Hips
{
	OFFSET 0.000000 0.000000 0.000000 
	CHANNELS 6 Xposition Yposition Zposition Yrotation Zrotation Xrotation 
	JOINT Lumbar
	{
		OFFSET 0.000000 0.000000 0.000000 
		CHANNELS 3 Zrotation Xrotation Yrotation
		JOINT Neck
		{
			OFFSET 0.000000 0.445665 0.000000 
			CHANNELS 3 Zrotation Xrotation Yrotation
			End Site
			{
				OFFSET 0.000000 0.227535 0.000000 
			}
		}
		JOINT RightShoulder
		{
			OFFSET 0.019635 0.377685 0.194865 
			CHANNELS 3 Zrotation Xrotation Yrotation
			JOINT RightElbow
			{
				OFFSET 0.000000 -0.243375 0.000000 
				CHANNELS 2 Zrotation Yrotation
				JOINT RightWrist
				{
					OFFSET 0.000000 -0.264825 0.000000 
					CHANNELS 2 Zrotation Xrotation
					End Site
					{
						OFFSET 0.006600 -0.176220 0.000990 
					}
				}
			}
		}
		JOINT LeftShoulder
		{
			OFFSET 0.019635 0.377685 -0.194865 
			CHANNELS 3 Zrotation Xrotation Yrotation
			JOINT LeftElbow
			{
				OFFSET 0.000000 -0.243375 0.000000 
				CHANNELS 2 Zrotation Yrotation
				JOINT LeftWrist
				{
					OFFSET 0.000000 -0.264825 0.000000 
					CHANNELS 2 Zrotation Xrotation
					End Site
					{
						OFFSET 0.006600 -0.176220 -0.000990 
					}
				}
			}
		}
	}
	JOINT RightHip
	{
		OFFSET 0.052140 -0.069960 0.075570 
		CHANNELS 3 Zrotation Xrotation Yrotation
		JOINT RightKnee
		{
			OFFSET 0.000000 -0.402270 0.000000 
			CHANNELS 1 Zrotation
			JOINT RightAnkle
			{
				OFFSET 0.000000 -0.404085 0.000000 
				CHANNELS 3 Zrotation Xrotation Yrotation
				End Site
				{
					OFFSET 0.204105 -0.089430 0.008415 
				}
			}
		}
	}
	JOINT LeftHip
	{
		OFFSET 0.052140 -0.069960 -0.075570 
		CHANNELS 3 Zrotation Xrotation Yrotation
		JOINT LeftKnee
		{
			OFFSET 0.000000 -0.402270 0.000000 
			CHANNELS 1 Zrotation
			JOINT LeftAnkle
			{
				OFFSET 0.000000 -0.404085 0.000000 
				CHANNELS 3 Zrotation Xrotation Yrotation
				End Site
				{
					OFFSET 0.204105 -0.089430 -0.008415 
				}
			}
		}
	}
}
MOTION
Frames: 16
Frame Time: 0.02
-4e-05 0.00015 -0.00025 25.34506 -35.40821 -4.59832 56.71793 -0.79842 -2.45829 -9.63296 -1.30943 -1.15358 166.38597 -75.14259 -43.61345 16.05293 82.7269 -5.11963 -10.97274 -3.11794 109.1994 -55.63403 5.78693 -82.8894 18.51345 2.54524 48.16264 -4.24585 -18.12357 -18.51525 -6.70207 -2.50916 -3.46072 53.21635 3.98385 1.45421 -24.19282 -8.52934 3.83866 4.21909
-0.00071 6e-05 9e-05 25.36652 -35.38364 -4.59945 56.65984 -0.81 -2.46373 -9.68697 -1.27786 -1.15393 166.38254 -75.08673 -43.7392 16.02119 82.74977 -5.06835 -10.97854 -3.28096 109.18873 -55.63435 5.78692 -82.86988 18.47021 2.58604 48.20051 -4.17495 -17.64696 -18.51694 -6.72823 -2.55896 -3.48536 53.23652 4.05098 1.76802 -24.19413 -8.51221 3.81609 4.20415
-0.00137 -3e-05 0.00043 25.38786 -35.35912 -4.60058 56.6018 -0.82153 -2.46911 -9.74082 -1.24642 -1.15429 166.3789 -75.03104 -43.86486 15.98947 82.7726 -5.01714 -10.9843 -3.44193 109.17767 -55.63339 5.78696 -82.85015 18.42689 2.6268 48.23834 -4.10422 -17.17151 -18.51864 -6.75433 -2.60862 -3.50993 53.25668 4.11799 2.08123 -24.19545 -8.49513 3.79355 4.18925
-0.00203 -0.00012 0.00078 25.40925 -35.33462 -4.60171 56.54388 -0.83307 -2.47452 -9.79467 -1.21496 -1.15464 166.37548 -74.97535 -43.99023 15.95781 82.79541 -4.96601 -10.99007 -3.60586 109.16735 -55.63477 5.78692 -82.83083 18.38388 2.6674 48.2761 -4.03353 -16.69629 -18.52033 -6.78041 -2.65827 -3.5345 53.2768 4.18493 2.39413 -24.19676 -8.47805 3.77104 4.17436
-0.00269 -0.00021 0.00112 25.43077 -35.31009 -4.60284 56.48595 -0.84468 -2.48002 -9.84867 -1.18335 -1.155 166.37225 -74.91948 -44.11567 15.92617 82.81825 -4.91484 -10.9959 -3.76788 109.15651 -55.63446 5.78693 -82.8113 18.34066 2.70826 48.31388 -3.9627 -16.2201 -18.52202 -6.80655 -2.70805 -3.55913 53.29694 4.25195 2.7075 -24.19809 -8.46094 3.7485 4.15944
-0.00335 -0.00029 0.00146 25.45174 -35.28559 -4.60397 56.42765 -0.85603 -2.48513 -9.90222 -1.15227 -1.15536 166.36773 -74.8642 -44.24184 15.89426 82.84106 -4.86356 -11.0015 -3.92406 109.1444 -55.63019 5.78708 -82.79084 18.29691 2.74894 48.35183 -3.89218 -15.74629 -18.52373 -6.83257 -2.75745 -3.5836 53.31716 4.31894 3.02034 -24.19938 -8.44391 3.72598 4.14456
-0.00401 -0.00038 0.0018 25.47381 -35.26104 -4.60509 56.37021 -0.8679 -2.49102 -9.95663 -1.12017 -1.1557 166.36605 -74.80777 -44.36614 15.86291 82.8639 -4.81256 -11.00756 -4.10379 109.13767 -55.64297 5.78665 -82.77366 18.25529 2.78928 48.38935 -3.82109 -15.268 -18.5254 -6.85879 -2.80757 -3.60836 53.33714 4.38591 3.33387 -24.20073 -8.42674 3.70345 4.12962
-0.00468 -0.00047 0.00214 25.49483 -35.23656 -4.60623 56.3119 -0.87927 -2.49617 -10.01018 -1.08901 -1.15608 166.36131 -74.75245 -44.49264 15.83111 82.88672 -4.7613 -11.0132 -4.23997 109.12084 -55.62347 5.78732 -82.75095 18.20984 2.83116 48.42734 -3.75059 -14.79423 -18.52711 -6.88482 -2.85699 -3.63283 53.35742 4.45293 3.64683 -24.20203 -8.4097 3.68092 4.11473
-0.00534 -0.00056 0.00249 25.51469 -35.21207 -4.60737 56.25278 -0.89009 -2.50049 -10.06298 -1.05897 -1.15643 166.35453 -74.69829 -44.62005 15.79847 82.90951 -4.70967 -11.01831 -4.4094 109.11197 -55.63002 5.7871 -82.73134 18.16704 2.87006 48.46566 -3.68054 -14.32422 -18.52883 -6.91067 -2.90575 -3.65706 53.37778 4.51994 3.95901 -24.20327 -8.3928 3.6584 4.09992
-0.00598 -0.00065 0.00281 25.54163 -35.18735 -4.60844 56.19909 -0.90429 -2.50983 -10.12103 -1.02238 -1.15672 166.36461 -74.63686 -44.73688 15.76979 82.93244 -4.66003 -11.0264 -4.64747 109.11835 -55.6836 5.78529 -82.72353 18.13103 2.91153 48.50133 -3.60707 -13.82724 -18.53037 -6.93773 -2.95888 -3.68303 53.39684 4.58679 4.27546 -24.20484 -8.37503 3.63587 4.08471
-0.00668 -0.00074 0.00318 25.55337 -35.16331 -4.6097 56.13345 -0.9112 -2.50842 -10.16739 -0.99972 -1.15728 166.33585 -74.59113 -44.87939 15.73333 82.95509 -4.60629 -11.02826 -4.57479 109.05359 -55.51228 5.79112 -82.67194 18.06665 2.95685 48.54306 -3.54133 -13.39065 -18.53239 -6.96212 -3.00243 -3.70511 53.41914 4.65408 4.58298 -24.20573 -8.35915 3.61332 4.07033
-0.00753 -0.00085 0.00363 25.5248 -35.13952 -4.61112 56.03835 -0.89895 -2.47832 -10.18547 -1.01484 -1.15747 166.2262 -74.58603 -45.06679 15.67023 82.97696 -4.53976 -11.01174 -5.05493 109.12352 -55.78601 5.78183 -82.65984 18.04323 2.93294 48.59833 -3.49256 -13.09151 -18.53508 -6.9802 -3.02228 -3.71808 53.44658 4.72182 4.86493 -24.20458 -8.348 3.59085 4.05827
-0.00844 -0.00096 0.00411 25.48058 -35.11679 -4.61289 55.93045 -0.87912 -2.43718 -10.19058 -1.04409 -1.15817 166.07284 -74.59716 -45.28535 15.60016 82.99855 -4.4691 -10.98884 -4.9996 109.06947 -55.66332 5.78603 -82.57844 17.9724 2.925 48.66051 -3.45219 -12.85756 -18.53841 -6.99548 -3.03203 -3.72686 53.47814 4.79019 5.13777 -24.20275 -8.33883 3.5683 4.04703
-0.00934 -0.00108 0.00459 25.44279 -35.09446 -4.61463 55.82643 -0.86234 -2.40065 -10.19978 -1.06706 -1.15934 165.92261 -74.60249 -45.50561 15.53691 83.02023 -4.40171 -10.97014 -4.22389 108.84567 -54.99472 5.80878 -82.41904 17.84168 2.9653 48.72124 -3.41092 -12.61312 -18.54186 -7.01132 -3.04469 -3.73655 53.51003 4.85868 5.41591 -24.20135 -8.32904 3.54571 4.0354
-0.01017 -0.00118 0.00503 25.40837 -35.06798 -4.61544 55.73124 -0.84762 -2.36618 -10.21869 -1.08917 -1.15747 165.84266 -74.6012 -45.65647 15.45877 83.042 -4.32965 -10.94743 -7.36253 109.5406 -57.28202 5.731 -82.70416 18.04183 2.78245 48.77385 -3.35793 -12.29086 -18.54347 -7.02992 -3.06439 -3.7504 53.53189 4.92524 5.69055 -24.19952 -8.31809 3.52351 4.02387
-0.01116 -0.00131 0.00556 25.36257 -35.05097 -4.61872 55.6138 -0.82629 -2.32434 -10.21165 -1.11681 -1.16215 165.60631 -74.61757 -45.9624 15.40929 83.06363 -4.26479 -10.92968 -2.41326 108.33713 -53.45474 5.86123 -82.06903 17.55768 3.05425 48.84627 -3.33062 -12.14258 -18.54922 -7.04243 -3.06707 -3.75463 53.57655 4.99626 5.96855 -24.19833 -8.31003 3.50041 4.0123
